<svg width="121" height="49" viewBox="0 0 121 49" fill="none" xmlns="http://www.w3.org/2000/svg">
<path d="M105.136 30.6745L95.1825 14.085H89.3787L102.129 36.1698V47.7825H108.249V36.1698L121 14.085H115.401L105.136 30.6745Z" fill="white"/>
<path d="M41.1629 38.1398C41.1629 32.1676 41.2666 19.6148 41.2666 14.085H46.7619C46.7619 14.085 46.8655 35.0293 46.8655 38.7619C46.8655 42.4946 44.2942 48.8193 36.0823 48.8193C31.4165 48.8193 28.2023 47.4714 25.7139 45.3977C26.1286 44.8102 27.3728 43.1789 28.617 41.354C31.9349 44.3609 41.1629 44.5682 41.1629 38.1398Z" fill="#00C4B0"/>
<path d="M29.5501 13.7739H0V18.7508H12.2348V47.5751H18.0411V18.7508H29.5501V13.7739Z" fill="white"/>
<circle cx="44.1696" cy="4.02772" r="3.52528" fill="#00C4B0" fill-opacity="0.92"/>
<path d="M88.754 30.8818C88.754 40.7884 80.7232 48.8192 70.8166 48.8192C60.91 48.8192 52.8792 40.7884 52.8792 30.8818C52.8792 20.9752 60.91 12.9443 70.8166 12.9443C80.7232 12.9443 88.754 20.9752 88.754 30.8818ZM58.1749 30.8818C58.1749 37.8636 63.8348 43.5235 70.8166 43.5235C77.7984 43.5235 83.4583 37.8636 83.4583 30.8818C83.4583 23.9 77.7984 18.2401 70.8166 18.2401C63.8348 18.2401 58.1749 23.9 58.1749 30.8818Z" fill="white"/>
</svg>
